<svg xmlns="http://www.w3.org/2000/svg" viewBox="0 0 200 215" fill="none">

  <!-- OUTER SHIELD (dark almost-black) -->
  <path d="M100,8 C120,8 160,14 183,33 L183,118 C183,165 100,207 100,207 C100,207 17,165 17,118 L17,33 C40,14 80,8 100,8 Z" fill="#080f18"/>

  <!-- RED RING -->
  <path d="M100,12 C118,12 156,18 178,36 L178,118 C178,162 100,203 100,203 C100,203 22,162 22,118 L22,36 C44,18 82,12 100,12 Z" fill="#C62828"/>

  <!-- INNER NAVY SHIELD -->
  <path d="M100,20 C116,20 150,28 170,44 L170,118 C170,156 100,195 100,195 C100,195 30,156 30,118 L30,44 C50,28 84,20 100,20 Z" fill="#0B1C2D"/>

  <!-- TSC TOP NOTCH (red pentagon) -->
  <path d="M83,12 Q100,5 117,12 L115,26 Q100,20 85,26 Z" fill="#C62828"/>
  <text x="100" y="22" font-family="Georgia,'Times New Roman',serif" font-size="9" font-weight="bold" fill="white" text-anchor="middle" letter-spacing="2.5">TSC</text>

  <!-- LEFT ARM / GLOVE (extends left of shield) -->
  <ellipse cx="12" cy="90" rx="19" ry="25" fill="#060d15" transform="rotate(-10 12 90)"/>
  <ellipse cx="12" cy="90" rx="14" ry="20" fill="#e4d8c2" transform="rotate(-10 12 90)"/>
  <ellipse cx="12" cy="90" rx="8"  ry="13" fill="#c8ae8a" transform="rotate(-10 12 90)"/>
  <path d="M24,103 Q31,98 33,90" stroke="#C62828" stroke-width="3" fill="none" stroke-linecap="round"/>

  <!-- RIGHT ARM / GLOVE (extends right of shield) -->
  <ellipse cx="188" cy="90" rx="19" ry="25" fill="#060d15" transform="rotate(10 188 90)"/>
  <ellipse cx="188" cy="90" rx="14" ry="20" fill="#e4d8c2" transform="rotate(10 188 90)"/>
  <ellipse cx="188" cy="90"  rx="8" ry="13" fill="#c8ae8a" transform="rotate(10 188 90)"/>
  <path d="M176,103 Q169,98 167,90" stroke="#C62828" stroke-width="3" fill="none" stroke-linecap="round"/>

  <!-- LEFT FOREARM SLEEVE -->
  <path d="M36,82 Q58,73 75,80 L100,94" stroke="#e4d8c2" stroke-width="9" stroke-linecap="round" fill="none"/>

  <!-- RIGHT FOREARM SLEEVE -->
  <path d="M164,82 Q142,73 125,80 L100,94" stroke="#e4d8c2" stroke-width="9" stroke-linecap="round" fill="none"/>

  <!-- CLASPED HANDS -->
  <ellipse cx="100" cy="96" rx="22" ry="15" fill="#d0aa7a"/>
  <ellipse cx="100" cy="96" rx="17" ry="11" fill="#e8c898"/>
  <line x1="87"  y1="91" x2="87"  y2="101" stroke="#b8884c" stroke-width="1.2" stroke-linecap="round"/>
  <line x1="94"  y1="89" x2="94"  y2="103" stroke="#b8884c" stroke-width="1.2" stroke-linecap="round"/>
  <line x1="100" y1="88" x2="100" y2="104" stroke="#b8884c" stroke-width="1.2" stroke-linecap="round"/>
  <line x1="106" y1="89" x2="106" y2="103" stroke="#b8884c" stroke-width="1.2" stroke-linecap="round"/>
  <line x1="113" y1="91" x2="113" y2="101" stroke="#b8884c" stroke-width="1.2" stroke-linecap="round"/>

  <!-- BANNER LEFT NOTCHED TAIL -->
  <path d="M23,136 L47,136 L41,150 L47,164 L23,164 L29,150 Z" fill="#112030"/>

  <!-- BANNER RIGHT NOTCHED TAIL -->
  <path d="M177,136 L153,136 L159,150 L153,164 L177,164 L171,150 Z" fill="#112030"/>

  <!-- BANNER MAIN BODY -->
  <rect x="45" y="134" width="110" height="30" fill="#1a2e45"/>

  <!-- BANNER TEXT -->
  <text x="100" y="153" font-family="Arial,Helvetica,sans-serif" font-size="9" font-weight="bold" fill="white" text-anchor="middle" letter-spacing="0.6">THE SPORTS COMPANY</text>

  <!-- STAR: small-left center=(78,181) R=6 r=2.5 -->
  <polygon points="78,175 79.47,178.98 83.71,179.14 80.38,181.77 81.53,185.85 78,183.5 74.47,185.85 75.62,181.77 72.29,179.14 76.53,178.98" fill="white" opacity="0.85"/>

  <!-- STAR: large-center center=(100,181) R=9 r=4 -->
  <polygon points="100,172 102.35,177.76 108.56,178.22 103.80,182.24 105.29,188.28 100,185 94.71,188.28 96.20,182.24 91.44,178.22 97.65,177.76" fill="white"/>

  <!-- STAR: small-right center=(122,181) R=6 r=2.5 -->
  <polygon points="122,175 123.47,178.98 127.71,179.14 124.38,181.77 125.53,185.85 122,183.5 118.47,185.85 119.62,181.77 116.29,179.14 120.53,178.98" fill="white" opacity="0.85"/>

</svg>
